<svg width="295" height="118" viewBox="0 0 295 118" fill="none" xmlns="http://www.w3.org/2000/svg">
<path d="M269.414 90.4142C270.195 89.6332 270.195 88.3668 269.414 87.5858L256.686 74.8579C255.905 74.0768 254.639 74.0768 253.858 74.8579C253.077 75.6389 253.077 76.9052 253.858 77.6863L265.172 89L253.858 100.314C253.077 101.095 253.077 102.361 253.858 103.142C254.639 103.923 255.905 103.923 256.686 103.142L269.414 90.4142ZM268 87C224.37 87 184.97 77.0969 156.547 61.1873C128.06 45.2415 111 23.5282 111 0H107C107 25.6251 125.534 48.4118 154.593 64.6777C183.717 80.9798 223.817 91 268 91V87Z" fill="#71E8DF"/>
</svg>
